<?xml version="1.0" encoding="UTF-8" standalone="no"?>
<svg
   xmlns:dc="http://purl.org/dc/elements/1.1/"
   xmlns:cc="http://creativecommons.org/ns#"
   xmlns:rdf="http://www.w3.org/1999/02/22-rdf-syntax-ns#"
   xmlns:svg="http://www.w3.org/2000/svg"
   xmlns="http://www.w3.org/2000/svg"
   xmlns:sodipodi="http://sodipodi.sourceforge.net/DTD/sodipodi-0.0/sodipodi-0.dtd"
   xmlns:inkscape="http://www.inkscape.org/namespaces/inkscape"
   version="1.1"
   width="886.66669"
   height="1013.3333"
   viewBox="0 0 886.66669 1013.3333">
  <style>
    .light { display: block; }
    .dark  { display: none; }
    @media (prefers-color-scheme: dark) {
      .light { display: none; }
      .dark  { display: block; }
    }
  </style>
<g class="light"
     id="g3855"
     inkscape:groupmode="layer"
     inkscape:label="ink_ext_XXXXXX"
     transform="matrix(1.3333333,0,0,-1.3333333,0,1013.3333)"><g
       id="g3857"
       transform="matrix(0.11603576,0,0,0.11603576,-53.318907,-60.935875)"><path
         d="M 1899.54,1167.11 C 1804.12,1145.3 1523.34,992.641 1280.72,946.301 1038.11,899.961 828.203,875.422 754.598,848.16 680.996,820.902 623.75,766.379 768.23,711.859 c 144.481,-54.519 845.07,-73.597 907.77,0 62.7,73.602 -43.24,105.5 -196.28,103.59 -109.04,-1.359 -95.66,36.633 -95.41,40.891 0,0 6.82,47.711 174.47,70.879 167.38,23.133 907.77,92.681 894.14,171.741 -13.63,79.05 -457.97,89.96 -553.38,68.15"
         style="fill:#211c1d;fill-opacity:1;fill-rule:nonzero;stroke:none"
         id="path3859"
         inkscape:connector-curvature="0" /><path
         d="m 1410.08,625.031 c -78.33,-17.051 -137.81,-49.351 -132.85,-72.16 4.96,-22.801 72.49,-27.473 150.83,-10.422 78.33,17.051 137.81,49.352 132.85,72.16 -4.96,22.801 -72.49,27.461 -150.83,10.422"
         style="fill:#211c1d;fill-opacity:1;fill-rule:nonzero;stroke:none"
         id="path3861"
         inkscape:connector-curvature="0" /><path
         d="m 1079.84,643.578 c -84.043,-6.687 -150.723,-30.359 -148.93,-52.867 1.793,-22.52 71.38,-35.34 155.42,-28.652 84.05,6.691 150.72,30.363 148.93,52.871 -1.79,22.519 -71.37,35.34 -155.42,28.648"
         style="fill:#211c1d;fill-opacity:1;fill-rule:nonzero;stroke:none"
         id="path3863"
         inkscape:connector-curvature="0" /><path
         d="m 810.25,667.949 c -55.941,-7.617 -99.355,-28 -96.969,-45.527 2.387,-17.531 49.672,-25.563 105.614,-17.942 55.941,7.622 99.355,28 96.968,45.532 -2.386,17.527 -49.672,25.558 -105.613,17.937"
         style="fill:#211c1d;fill-opacity:1;fill-rule:nonzero;stroke:none"
         id="path3865"
         inkscape:connector-curvature="0" /><path
         d="m 612.531,692.512 c -54.008,-7.84 -96.125,-25.672 -94.07,-39.821 2.055,-14.16 47.504,-19.281 101.516,-11.441 54.007,7.852 96.125,25.68 94.07,39.828 -2.055,14.152 -47.504,19.274 -101.516,11.434"
         style="fill:#211c1d;fill-opacity:1;fill-rule:nonzero;stroke:none"
         id="path3867"
         inkscape:connector-curvature="0" /><path
         d="m 574.992,697.141 c 54.012,7.839 96.129,25.668 94.074,39.82 -2.054,14.16 -47.503,19.281 -101.511,11.441 -54.012,-7.851 -96.129,-25.683 -94.075,-39.832 2.055,-14.148 47.504,-19.269 101.512,-11.429"
         style="fill:#211c1d;fill-opacity:1;fill-rule:nonzero;stroke:none"
         id="path3869"
         inkscape:connector-curvature="0" /><path
         d="m 562.754,763.68 c 46.949,6.812 83.566,22.32 81.777,34.621 -1.785,12.308 -41.297,16.75 -88.25,9.937 -46.953,-6.816 -83.566,-22.316 -81.781,-34.617 1.789,-12.312 41.301,-16.762 88.254,-9.941"
         style="fill:#211c1d;fill-opacity:1;fill-rule:nonzero;stroke:none"
         id="path3871"
         inkscape:connector-curvature="0" /><path
         d="m 3355.24,1090.78 c -166.29,-8.18 -542.48,10.91 -594.28,-76.33 -51.79,-87.231 152.66,-119.938 474.33,-92.68 321.67,27.261 776.92,62.699 796,160.83 19.08,98.14 -84.5,79.06 -95.41,141.76 -10.9,62.7 114.49,62.7 139.03,155.38 24.53,92.69 -169.02,81.78 -340.76,81.78 -171.73,0 -457.97,-16.35 -485.23,-106.31 -27.26,-89.96 130.85,-89.96 242.62,-111.77 111.76,-21.81 79.05,-62.7 79.05,-62.7 -5.45,-57.25 -49.07,-81.78 -215.35,-89.96"
         style="fill:#211c1d;fill-opacity:1;fill-rule:nonzero;stroke:none"
         id="path3873"
         inkscape:connector-curvature="0" /><path
         d="m 2910.55,898.602 c -79.6,0 -144.14,-21.063 -144.14,-47.032 0,-25.968 64.54,-47.019 144.14,-47.019 79.61,0 144.14,21.051 144.14,47.019 0,25.969 -64.53,47.032 -144.14,47.032"
         style="fill:#211c1d;fill-opacity:1;fill-rule:nonzero;stroke:none"
         id="path3875"
         inkscape:connector-curvature="0" /><path
         d="m 3281.63,904.73 c -53.07,0 -96.09,-19.218 -96.09,-42.929 0,-23.719 43.02,-42.942 96.09,-42.942 53.07,0 96.1,19.223 96.1,42.942 0,23.711 -43.03,42.929 -96.1,42.929"
         style="fill:#211c1d;fill-opacity:1;fill-rule:nonzero;stroke:none"
         id="path3877"
         inkscape:connector-curvature="0" /><path
         d="m 3581.16,927.219 c -58.16,0 -105.3,-15.559 -105.3,-34.758 0,-19.191 47.14,-34.75 105.3,-34.75 58.15,0 105.29,15.559 105.29,34.75 0,19.199 -47.14,34.758 -105.29,34.758"
         style="fill:#211c1d;fill-opacity:1;fill-rule:nonzero;stroke:none"
         id="path3879"
         inkscape:connector-curvature="0" /><path
         d="m 3812.19,968.109 c -42.35,0 -76.67,-16.48 -76.67,-36.8 0,-20.329 34.32,-36.797 76.67,-36.797 42.34,0 76.67,16.468 76.67,36.797 0,20.32 -34.33,36.8 -76.67,36.8"
         style="fill:#211c1d;fill-opacity:1;fill-rule:nonzero;stroke:none"
         id="path3881"
         inkscape:connector-curvature="0" /><path
         d="m 4011.53,1009 c -42.91,0 -77.69,-16.02 -77.69,-35.781 0,-19.758 34.78,-35.778 77.69,-35.778 42.91,0 77.69,16.02 77.69,35.778 0,19.761 -34.78,35.781 -77.69,35.781"
         style="fill:#211c1d;fill-opacity:1;fill-rule:nonzero;stroke:none"
         id="path3883"
         inkscape:connector-curvature="0" /><path
         d="m 621.66,1978.44 c 0,-46.49 101.387,-90.44 281.461,-129.55 -12.824,93.27 -4.898,187.33 7.117,260.62 -184.519,-39.5 -288.578,-83.99 -288.578,-131.07"
         style="fill:#211c1d;fill-opacity:1;fill-rule:nonzero;stroke:none"
         id="path3885"
         inkscape:connector-curvature="0" /><path
         d="m 5935.33,2098.87 c -2.73,-7.55 -5.63,-15 -8.76,-22.32 -22.15,-51.8 -53.92,-97.55 -94.45,-135.94 -81.34,-77.04 -152.65,-123.2 -216.36,-140.04 351.93,49.47 560.83,111.07 560.83,177.87 0,42.9 -86.41,83.65 -241.26,120.43"
         style="fill:#211c1d;fill-opacity:1;fill-rule:nonzero;stroke:none"
         id="path3887"
         inkscape:connector-curvature="0" /><path
         d="m 3650.72,3435.23 c -307.86,0 -557.42,249.56 -557.42,557.41 0,307.85 249.56,557.41 557.42,557.41 307.84,0 557.4,-249.56 557.4,-557.41 0,-307.85 -249.56,-557.41 -557.4,-557.41 z m -103.33,-637.74 c -56.76,-25.36 -140.37,-36.18 -279.58,-36.18 -47.24,0 -95.96,1.26 -138.95,2.36 -37.24,0.96 -72.42,1.87 -101.71,1.87 -26.89,0 -46.49,-0.79 -58.26,-2.34 -131.49,-17.3 -240.03,-85.31 -327.24,-139.96 -25.48,-15.96 -49.55,-31.04 -72.08,-43.49 -36.1,-19.95 -80.45,-30.5 -128.23,-30.5 -88.29,0 -171.35,34.67 -222.19,92.74 -42.24,48.25 -59.95,108.45 -51.19,174.08 26.31,197.37 308.14,298 340.18,308.82 l 51.61,17.43 c -1.7,5 -3.05,10.12 -3.92,15.39 -15.26,91.88 104.72,188.34 267.98,215.45 7.33,1.21 14.6,2.21 21.84,3.11 135.16,16.79 253.82,-20.98 290.81,-89.71 l 62.95,-0.53 c 143.38,-1.22 261.7,-20.48 351.67,-57.25 90.48,-36.98 145.87,-90.72 155.98,-151.35 20.27,-121.56 -39.42,-226.21 -159.67,-279.94 z M 3045.6,2458.51 c -29.17,10.94 -51.19,59.45 -66.98,112.48 -13.4,44.97 -22.32,93.17 -27.3,124.49 13.81,3.12 27.86,5.73 42.19,7.62 7.05,0.92 22.06,2.03 53.61,2.03 28.84,0 63.79,-0.9 100.81,-1.86 10.62,-0.27 21.6,-0.55 32.82,-0.83 2.9,-25.32 6.44,-62.08 10.48,-115.88 0.4,-5.41 0.59,-10.56 0.65,-15.57 1.72,-134.25 -115.64,-123.97 -146.28,-112.48 z m -190.83,-47.71 c -117.43,-34.98 -159.73,100.08 -172.36,158.64 0.81,0.51 1.66,1.04 2.48,1.55 54.8,34.32 118.15,73.46 189.61,100.93 8.45,-22.62 21.3,-60.64 29.1,-100.93 13.12,-67.83 11.91,-142.09 -48.83,-160.19 z M 1365.83,3590.9 c 0,307.85 249.56,557.42 557.41,557.42 307.86,0 557.41,-249.57 557.41,-557.42 0,-153.47 -62.04,-292.44 -162.4,-393.24 -33.61,-33.76 -71.57,-63.15 -112.89,-87.45 -82.77,-48.68 -179.15,-76.72 -282.12,-76.72 -307.85,0 -557.41,249.57 -557.41,557.41 z M 5333.36,2196.64 c -22.38,164.04 -92.35,237.63 -154.08,302.57 -57.48,60.46 -111.79,117.57 -94.31,222.43 16.17,96.93 93.29,156.58 219.29,172.09 -76.53,517.28 -188.68,1169.89 -332.84,1726.63 -71.99,278.04 -185.85,471.17 -338.56,599.57 -174.75,-89.41 -384.95,-187.68 -619.6,-289.42 -169.55,-73.52 -344.59,-145.54 -511.05,-210.99 -134.01,-143.77 -280.44,-285.47 -370.18,-325.86 -63.89,-28.74 -120.66,-40.19 -170.01,-40.19 -106.83,0 -178.96,53.59 -213.87,101.25 -40.48,-10.7 -72.81,-17.63 -94.8,-19.95 -26.3,-2.77 -65.06,-6.06 -113.53,-9.56 18.62,-48.76 11.21,-105.86 -24.51,-148.89 -39.28,-47.33 -102.59,-71.1 -192.31,-71.1 -129.1,0 -312.91,49.24 -558.67,148.5 -36.16,14.6 -69.36,27.58 -99.85,39.15 -18.82,-0.1 -37.63,-0.16 -56.44,-0.16 -0.05,0 -0.11,0 -0.17,0 -234.8,0 -418.3,7.38 -562.14,19.16 -157.55,-326.13 -89.089,-687.87 -31.42,-986.68 55.26,-286.36 247,-795.9 424.83,-1233.68 65.98,-162.41 130.03,-314.91 184.51,-442.51 481.43,-42.58 1098.7,-68.17 1771.74,-68.17 800.94,0 1522.4,36.28 2030.44,94.28 -37.02,152.34 -83.91,364.3 -91.97,418.21 -0.17,1.09 -0.37,2.36 -0.5,3.32"
         style="fill:#78d3e0;fill-opacity:1;fill-rule:nonzero;stroke:none"
         id="path3889"
         inkscape:connector-curvature="0" /><path
         d="m 4364.63,5870.73 -4.17,7.26 -5.5,6.99 c -5.19,8.3 -25.6,21.12 -27.19,21.25 l -2.09,1.12 -1.05,0.56 -3.99,1.73 -0.35,0.12 -0.7,0.26 -5.65,1.99 -11.4,3.9 c -7.5,2.8 -16.06,3.76 -24.15,5.44 -8.21,1.46 -16.93,1.41 -25.41,1.95 -8.56,-0.3 -17.26,-0.89 -25.77,-2.1 -34.24,-6.04 -64.45,-22.61 -87.47,-42.35 -23.36,-19.67 -40.88,-42.22 -55.1,-64.57 -28.25,-44.96 -44.13,-89.79 -54.63,-128.46 -10.29,-38.78 -14.66,-71.73 -16.48,-94.9 -1.18,-11.5 -1.1,-20.75 -1.35,-26.94 -0.1,-6.24 0.1,-9.59 0.1,-9.59 0,0 6.34,11.53 17.45,31.7 11.09,19.95 26.63,48.26 45.79,80.85 19.31,32.37 42.37,69.48 70.33,103.1 14,16.68 29.38,32.22 45.6,44.24 16.35,11.87 33.07,20.01 49.73,22.69 4.2,0.52 8.39,0.91 12.62,1.28 4.32,-0.46 8.55,0.02 12.95,-0.77 4.41,-1.08 8.78,-1.02 13.32,-2.49 l 10.7,-2.89 3.37,-1.55 c -0.16,0.14 -0.33,0.25 -0.45,0.42 0.15,-0.06 0.32,-0.1 0.57,-0.1 0.1,-0.21 0.24,-0.37 0.37,-0.55 l 0.45,-0.2 0.97,-0.46 -0.46,0.05 c -0.23,0.04 -0.44,0.13 -0.65,0.21 0.52,-0.33 1,-1.13 1.46,-2.2 2.3,-4.11 3.99,-12.25 4.81,-21.25 1.05,-18.6 -1.19,-40.06 -4.68,-60.38 -3.37,-20.44 -7.7,-40.26 -12.02,-58.64 -8.69,-36.82 -17,-68.15 -22.48,-90.35 -5.69,-22.13 -8.71,-35.17 -8.71,-35.17 0,0 9.54,9.42 23.92,27.6 14.49,18.13 34.01,44.87 53.41,79.97 9.65,17.58 19.31,37.22 27.84,59.37 8.37,22.21 16.07,46.7 18.46,76.4 0.94,15.04 0.5,31.77 -5.93,50.95 -1.54,4.75 -3.48,9.56 -6.39,14.51"
         style="fill:#231f20;fill-opacity:1;fill-rule:nonzero;stroke:none"
         id="path3891"
         inkscape:connector-curvature="0" /><path
         d="m 4294.63,5830.32 -0.49,0.23 c 0.2,-0.19 0.34,-0.43 0.6,-0.56 0.06,-0.03 0.13,-0.04 0.2,-0.07 -0.04,0.03 -0.07,0.1 -0.11,0.11 -0.08,0.09 -0.13,0.2 -0.2,0.29"
         style="fill:#231f20;fill-opacity:1;fill-rule:nonzero;stroke:none"
         id="path3893"
         inkscape:connector-curvature="0" /><path
         d="m 907.426,4805.49 h 7.656 c -2.551,4.54 -5.102,9.13 -7.656,13.78 v -13.78"
         style="fill:#211c1d;fill-opacity:1;fill-rule:nonzero;stroke:none"
         id="path3895"
         inkscape:connector-curvature="0" /><path
         d="m 975.703,5021.5 c 16.461,-33.03 33.927,-57.79 46.977,-74.52 6.29,-8.47 12.09,-14.63 15.76,-18.94 3.79,-4.25 6,-6.38 6,-6.38 0,0 -2.24,12.04 -6.42,32.4 -3.96,20.41 -10,49.24 -15.5,82.78 -2.7,16.74 -5.18,34.72 -6.41,52.93 -1,17.89 -1,37.04 2.93,51.1 1.96,6.98 4.54,12.4 7.02,15.13 2.42,2.46 4.4,3.28 7.9,4.52 l 2.61,0.53 4.25,0.86 c 1.22,0.18 -0.34,-0.69 -0.45,-0.79 -0.46,-0.25 -0.96,-0.37 -1.43,-0.35 -0.24,0 -0.47,0.04 -0.69,0.12 l 0.53,-0.3 c 0.75,-0.34 1.46,-0.39 2.32,-0.48 4.11,-1.54 10.39,-4.87 16.99,-9.87 13.74,-9.96 27.95,-25.42 41.57,-41.09 13.45,-16.06 26.66,-32.95 39.15,-49.82 24.91,-33.89 47.95,-67 68.18,-95.44 20.23,-28.46 37.74,-52.31 50.5,-68.9 12.61,-16.65 20.46,-26.06 20.46,-26.06 0,0 -0.34,3.03 -0.98,8.7 -0.89,5.58 -1.77,13.98 -3.94,24.25 -3.81,20.78 -10.56,50.06 -21.8,84.22 -11.17,34.19 -26.72,73.27 -48.35,113.62 -10.93,20.12 -23.19,40.72 -38.21,60.79 -14.98,20.21 -32.01,40.08 -55.66,58.27 -12.27,8.75 -26.42,17.22 -44.58,22.68 -4.8,1.15 -9.84,2.07 -14.79,2.84 l -3.74,0.51 -5.04,0.07 c -3.37,-0.02 -6.76,-0.18 -10.12,-0.46 -2.99,-0.26 -7.49,-0.76 -9.09,-1.17 l -4.18,-1.13 -4.18,-1.13 -5.52,-1.63 -1.63,-0.71 -3.24,-1.46 c -17.17,-7.05 -33.994,-21.18 -43.537,-37.59 -9.793,-16.29 -13.613,-32.71 -14.968,-47.28 -2.793,-29.4 2.976,-52.97 8.785,-74.44 6.371,-21.23 14.359,-39.82 22.523,-56.38"
         style="fill:#211c1d;fill-opacity:1;fill-rule:nonzero;stroke:none"
         id="path3897"
         inkscape:connector-curvature="0" /><path
         d="m 1232.75,1597.31 c 130.68,0 222.69,71.14 287.26,163.45 -73.89,171.38 -195.5,460.15 -310.8,764.06 -31.21,-26.56 -67.27,-66.65 -106.29,-127.13 -97.14,-150.56 -177.15,-500.88 -76.39,-685.79 42.01,-77.12 109.48,-114.59 206.22,-114.59"
         style="fill:#dec795;fill-opacity:1;fill-rule:nonzero;stroke:none"
         id="path3899"
         inkscape:connector-curvature="0" /><path
         d="m 5846.26,2465.34 c -76.6,198.2 -239.51,338.91 -396.15,342.17 l -5.6,0.49 c -0.25,0.04 -30.36,4.53 -70.8,4.53 -85.31,0 -190.03,-18.21 -204.5,-104.93 -10.03,-60.17 16.29,-90.99 71.96,-149.55 63.62,-66.89 150.71,-158.52 176.81,-349.88 29.88,-219.15 83.39,-330.28 159.01,-330.3 h 0.01 c 35.31,0 99.72,21.17 206.19,122.02 131.12,124.22 118.55,321.87 63.07,465.45"
         style="fill:#dec795;fill-opacity:1;fill-rule:nonzero;stroke:none"
         id="path3901"
         inkscape:connector-curvature="0" /><path
         d="m 1873.03,3570.82 c -97.07,0 -175.77,-78.69 -175.77,-175.76 0,-97.07 78.7,-175.76 175.77,-175.76 97.06,0 175.76,78.69 175.76,175.76 0,97.07 -78.7,175.76 -175.76,175.76"
         style="fill:#211c1d;fill-opacity:1;fill-rule:nonzero;stroke:none"
         id="path3903"
         inkscape:connector-curvature="0" /><path
         d="m 3575.39,3982.6 c -97.07,0 -175.76,-78.69 -175.76,-175.76 0,-97.07 78.69,-175.76 175.76,-175.76 97.06,0 175.76,78.69 175.76,175.76 0,97.07 -78.7,175.76 -175.76,175.76"
         style="fill:#211c1d;fill-opacity:1;fill-rule:nonzero;stroke:none"
         id="path3905"
         inkscape:connector-curvature="0" /><path
         d="m 1396.25,5358.56 c 137.15,-37.02 292.22,-55.78 460.91,-55.78 271.05,0 846.53,52.66 1655.39,405.34 l 18.21,7.93 c -2.53,41.07 0.79,86.12 11.15,133.27 17.95,81.58 53.47,150.71 97.1,196.5 -8.42,31.29 -15.34,54.15 -20.17,65.75 -93.33,49.76 -862.83,336.4 -1264.13,336.4 -40.09,0 -75.11,-2.99 -104.06,-8.9 -355.68,-72.59 -896.1,-690.9 -915.5,-778.55 -5.82,-37.92 -4.06,-156.98 0.2,-285.52 l 60.9,-16.44"
         style="fill:#588e2f;fill-opacity:1;fill-rule:nonzero;stroke:none"
         id="path3907"
         inkscape:connector-curvature="0" /><path
         d="m 1389.31,4480.53 c -19.44,4.05 -30.33,5.3 -34.8,5.67 -74.15,-4.57 -142.13,47.29 -155.83,122.49 -1.39,7.65 -1.98,15.24 -2.19,22.78 -40.34,-22.89 -80.71,-47.65 -118.5,-73.8 l -67.19,-46.53 -49.441,65.09 c -14.898,19.62 -83.675,112.42 -147.062,234.49 -119.043,-56.16 -212.051,-117.57 -234.758,-175.75 -4.297,-11.02 -2.559,-16.96 1.899,-23.5 19.433,-28.44 134.687,-115.4 807.872,-130.94"
         style="fill:#588e2f;fill-opacity:1;fill-rule:nonzero;stroke:none"
         id="path3909"
         inkscape:connector-curvature="0" /><path
         d="m 2787.08,4671.13 c 59.12,37.64 134.63,28.51 183.21,-17.71 7.49,1.18 20.22,4.37 39.08,12.86 73.69,35.03 339.51,318.81 541.44,561.82 7.27,8.74 15.36,16.36 24.02,22.97 -461.49,-199.42 -1106.33,-417.35 -1720.31,-417.35 -98.69,0 -192.38,5.75 -279.36,17.01 l 13.48,-39.69 -76.78,-29.41 c -0.56,-0.21 -13.76,-5.31 -35.84,-14.48 98.83,-23.09 232.44,-68.48 400.24,-136.26 307.14,-124.03 424.6,-128.77 454,-127.02 41.77,22.13 92.22,23 135.42,1.89 79.68,5.11 141.65,10.05 178.73,13.96 16.85,1.77 41.9,7.02 73.78,15.25 -3.52,52.76 21.13,105.77 68.89,136.16"
         style="fill:#588e2f;fill-opacity:1;fill-rule:nonzero;stroke:none"
         id="path3911"
         inkscape:connector-curvature="0" /><path
         d="m 4574.86,5583.24 c -22.37,-133.29 -65.35,-279.62 -93.86,-319.53 l -26.74,-37.41 c 121.11,58.97 229.15,114.9 320.86,166.33 318.89,178.79 358.54,257.09 363.1,276.83 2.98,12.94 -0.19,16.92 -1.55,18.63 -3.47,4.35 -25.86,26.08 -126.58,26.08 -110.07,0 -264.15,-25.17 -424.96,-60.07 -2.79,-22.96 -6.19,-46.56 -10.27,-70.86"
         style="fill:#588e2f;fill-opacity:1;fill-rule:nonzero;stroke:none"
         id="path3913"
         inkscape:connector-curvature="0" /><path
         d="m 4450.52,5224.48 -45.97,3.75 c -0.84,0.07 -85.27,6.83 -199.76,6.83 -118.95,0 -275.78,-7.18 -404.47,-37.64 24.57,-51.08 19.01,-113.93 -19.59,-160.37 -31.54,-37.96 -84.82,-101.23 -148.63,-173.8 113.19,45.93 229.98,94.8 347.17,145.61 171.92,74.55 330.39,147.12 471.25,215.62"
         style="fill:#588e2f;fill-opacity:1;fill-rule:nonzero;stroke:none"
         id="path3915"
         inkscape:connector-curvature="0" /><path
         d="m 3546.69,5629.82 c -323.22,-140.92 -1031.4,-412.45 -1689.53,-412.45 -166.62,0 -330.02,17.4 -483.17,58.73 15.98,-24.18 31.8,-49.98 47.47,-77.49 56.92,-99.99 98.56,-198.76 121.24,-257.05 79.57,-12.45 183.42,-22.43 311.82,-22.43 378.03,0 968.89,86.53 1779.65,451.44 12.74,39.98 29.68,90.06 50.69,145.68 -1.64,-0.06 -3.28,-0.35 -4.92,-0.35 -8.62,0 -17.24,0.93 -25.6,2.76 -50.31,11.06 -87.55,52.1 -107.65,111.16"
         style="fill:#dec795;fill-opacity:1;fill-rule:nonzero;stroke:none"
         id="path3917"
         inkscape:connector-curvature="0" /><path
         d="m 944.395,5152.32 c 1.355,14.57 5.175,30.99 14.968,47.28 9.543,16.41 26.367,30.54 43.537,37.59 l 3.24,1.46 1.63,0.71 5.52,1.63 4.18,1.13 4.18,1.13 c 1.6,0.41 6.1,0.91 9.09,1.17 3.36,0.28 6.75,0.44 10.12,0.46 l 5.04,-0.07 3.74,-0.51 c 4.95,-0.77 9.99,-1.69 14.79,-2.84 18.16,-5.46 32.31,-13.93 44.58,-22.68 23.65,-18.19 40.68,-38.06 55.66,-58.27 15.02,-20.07 27.28,-40.67 38.21,-60.79 21.63,-40.35 37.18,-79.43 48.35,-113.62 11.24,-34.16 17.99,-63.44 21.8,-84.22 2.17,-10.27 3.05,-18.67 3.94,-24.25 0.64,-5.67 0.98,-8.7 0.98,-8.7 0,0 -7.85,9.41 -20.46,26.06 -12.76,16.59 -30.27,40.44 -50.5,68.9 -20.23,28.44 -43.27,61.55 -68.18,95.44 -12.49,16.87 -25.7,33.76 -39.15,49.82 -13.62,15.67 -27.83,31.13 -41.57,41.09 -6.6,5 -12.88,8.33 -16.99,9.87 -0.86,0.09 -1.57,0.14 -2.32,0.48 l -0.53,0.3 c 0.22,-0.08 0.45,-0.12 0.69,-0.12 0.47,-0.02 0.97,0.1 1.43,0.35 0.11,0.1 1.67,0.97 0.45,0.79 l -4.25,-0.86 -2.61,-0.53 c -3.5,-1.24 -5.48,-2.06 -7.9,-4.52 -2.48,-2.73 -5.06,-8.15 -7.02,-15.13 -3.93,-14.06 -3.93,-33.21 -2.93,-51.1 1.23,-18.21 3.71,-36.19 6.41,-52.93 5.5,-33.54 11.54,-62.37 15.5,-82.78 4.18,-20.36 6.42,-32.4 6.42,-32.4 0,0 -2.21,2.13 -6,6.38 -3.67,4.31 -9.47,10.47 -15.76,18.94 -13.05,16.73 -30.516,41.49 -46.977,74.52 -8.164,16.56 -16.152,35.15 -22.523,56.38 -5.809,21.47 -11.578,45.04 -8.785,74.44 z m -29.313,-346.83 c 58.391,-103.95 114.298,-177.6 114.298,-177.6 195.84,135.58 451.95,233.51 451.95,233.51 0,0 -6.58,19.33 -18.9,50.89 -2.3,5.9 -4.81,12.21 -7.51,18.93 -1.05,2.61 -2.13,5.28 -3.24,8 -2.13,5.21 -4.34,10.6 -6.68,16.2 -1.91,4.56 -3.89,9.25 -5.93,14.04 -1.65,3.87 -3.34,7.8 -5.07,11.8 -2.33,5.38 -4.72,10.83 -7.2,16.44 -2.21,4.96 -4.49,10.03 -6.82,15.17 -2.43,5.36 -4.94,10.81 -7.5,16.32 -2.97,6.4 -6.01,12.87 -9.15,19.45 -1.59,3.32 -3.21,6.67 -4.83,10.03 -3.96,8.15 -8.05,16.41 -12.26,24.76 -1.09,2.18 -2.19,4.35 -3.3,6.54 -5.02,9.87 -10.23,19.85 -15.59,29.88 -0.59,1.11 -1.18,2.21 -1.78,3.32 -19.75,36.76 -41.7,74.19 -65.59,110.02 -78.61,117.87 -178.26,218.15 -289.84,218.12 -35.171,-0.01 -71.57,-9.98 -108.816,-32.5 -205.011,-123.96 -99.199,-407.82 6.102,-599.54 2.554,-4.65 5.105,-9.24 7.656,-13.78"
         style="fill:#78d3e0;fill-opacity:1;fill-rule:nonzero;stroke:none"
         id="path3919"
         inkscape:connector-curvature="0" /><path
         d="m 1010.18,5494.02 v 0 -42.71 42.71"
         style="fill:#78d3e0;fill-opacity:1;fill-rule:nonzero;stroke:none"
         id="path3921"
         inkscape:connector-curvature="0" /><path
         d="m 3757.06,6105.12 c 8.62,0 17.25,-0.93 25.6,-2.77 62.67,-13.79 105.02,-74.11 119.27,-157.79 119.48,167.81 249.78,252.65 389.05,252.65 58.7,0 110.23,-13.83 153.45,-40.55 73.48,89.36 120.23,150.99 120.23,150.99 -55.23,-10.04 -170.74,-25.11 -170.74,-25.11 436.89,160.7 401.74,597.59 401.74,597.59 0,-75.33 -225.97,-256.11 -225.97,-256.11 10.04,65.28 -25.11,150.65 -25.11,150.65 10.04,-85.37 -261.13,-306.32 -261.13,-306.32 20.08,40.17 5.02,110.47 5.02,110.47 -15.07,-80.34 -135.59,-110.47 -135.59,-110.47 75.33,90.39 215.94,567.45 110.48,597.58 -105.46,30.13 -251.08,-311.34 -251.08,-311.34 -5.03,80.34 -50.22,80.34 -50.22,80.34 20.09,-251.08 -180.78,-451.95 -180.78,-451.95 -15.07,50.22 -95.42,75.32 -95.42,75.32 25.79,-55.88 -3.59,-310.28 -12.59,-382.44 26.65,18.82 55.14,29.26 83.79,29.26"
         style="fill:#dec795;fill-opacity:1;fill-rule:nonzero;stroke:none"
         id="path3923"
         inkscape:connector-curvature="0" /><path
         d="m 3649.7,5616.61 c 0.11,-0.12 0.23,-0.21 0.34,-0.33 2.16,-2.35 4.39,-4.46 6.68,-6.28 0.84,-0.66 1.72,-1.1 2.57,-1.69 1.67,-1.15 3.32,-2.34 5.05,-3.2 2.71,-1.37 5.49,-2.4 8.33,-3.03 0.01,0 0.02,0 0.03,0 1.72,-0.39 3.51,-0.57 5.31,-0.69 2.82,-0.18 5.72,-0.04 8.7,0.42 13.15,2.04 27.63,10.22 42.1,23.71 13.23,30.87 27.45,62.41 42.71,94.04 14.02,29.07 28.23,56.8 42.62,83.23 21.44,113.55 -7.42,206.81 -49.82,216.14 -2.37,0.53 -4.76,0.78 -7.26,0.78 -43.57,0 -106.91,-75.84 -131.73,-188.72 -18.01,-81.95 -9.68,-154.77 11.55,-195.46 0.03,-0.05 0.05,-0.1 0.08,-0.15 3.85,-7.36 8.12,-13.66 12.74,-18.77"
         style="fill:#231f20;fill-opacity:1;fill-rule:nonzero;stroke:none"
         id="path3925"
         inkscape:connector-curvature="0" /><path
         d="m 4294.26,5830.87 c -0.25,0 -0.42,0.04 -0.57,0.1 0.12,-0.17 0.29,-0.28 0.45,-0.42 l 0.49,-0.23 c -0.13,0.18 -0.27,0.34 -0.37,0.55"
         style="fill:#78d3e0;fill-opacity:1;fill-rule:nonzero;stroke:none"
         id="path3927"
         inkscape:connector-curvature="0" /><path
         d="m 4296.05,5829.66 -0.97,0.46 -0.45,0.2 c 0.07,-0.09 0.12,-0.2 0.2,-0.29 0.04,-0.01 0.07,-0.08 0.11,-0.11 0.21,-0.08 0.42,-0.17 0.65,-0.21 l 0.46,-0.05"
         style="fill:#78d3e0;fill-opacity:1;fill-rule:nonzero;stroke:none"
         id="path3929"
         inkscape:connector-curvature="0" /><path
         d="m 4376.95,5805.27 c -2.39,-29.7 -10.09,-54.19 -18.46,-76.4 -8.53,-22.15 -18.19,-41.79 -27.84,-59.37 -19.4,-35.1 -38.92,-61.84 -53.41,-79.97 -14.38,-18.18 -23.92,-27.6 -23.92,-27.6 0,0 3.02,13.04 8.71,35.17 5.48,22.2 13.79,53.53 22.48,90.35 4.32,18.38 8.65,38.2 12.02,58.64 3.49,20.32 5.73,41.78 4.68,60.38 -0.82,9 -2.51,17.14 -4.81,21.25 -0.46,1.07 -0.94,1.87 -1.46,2.2 -0.07,0.03 -0.14,0.04 -0.2,0.07 -0.26,0.13 -0.4,0.37 -0.6,0.56 l -3.37,1.55 -10.7,2.89 c -4.54,1.47 -8.91,1.41 -13.32,2.49 -4.4,0.79 -8.63,0.31 -12.95,0.77 -4.23,-0.37 -8.42,-0.76 -12.62,-1.28 -16.66,-2.68 -33.38,-10.82 -49.73,-22.69 -16.22,-12.02 -31.6,-27.56 -45.6,-44.24 -27.96,-33.62 -51.02,-70.73 -70.33,-103.1 -19.16,-32.59 -34.7,-60.9 -45.79,-80.85 -11.11,-20.17 -17.45,-31.7 -17.45,-31.7 0,0 -0.2,3.35 -0.1,9.59 0.25,6.19 0.17,15.44 1.35,26.94 1.82,23.17 6.19,56.12 16.48,94.9 10.5,38.67 26.38,83.5 54.63,128.46 14.22,22.35 31.74,44.9 55.1,64.57 23.02,19.74 53.23,36.31 87.47,42.35 8.51,1.21 17.21,1.8 25.77,2.1 8.48,-0.54 17.2,-0.49 25.41,-1.95 8.09,-1.68 16.65,-2.64 24.15,-5.44 l 11.4,-3.9 5.65,-1.99 0.7,-0.26 0.35,-0.12 3.99,-1.73 1.05,-0.56 2.09,-1.12 c 1.59,-0.13 22,-12.95 27.19,-21.25 l 5.5,-6.99 4.17,-7.26 c 2.91,-4.95 4.85,-9.76 6.39,-14.51 6.43,-19.18 6.87,-35.91 5.93,-50.95 z m -85.97,306.53 c -248.71,0 -431.69,-374.37 -527.3,-628.7 -8.27,-21.97 -15.87,-43.03 -22.81,-62.89 -1.08,-3.09 -2.15,-6.15 -3.19,-9.17 -7.79,-22.52 -14.66,-43.3 -20.65,-61.95 -9.42,-29.4 -16.61,-53.44 -21.4,-70.06 12.02,-2.44 23.78,-6.52 35.08,-11.99 144.92,43.38 332.45,53.43 474.08,53.43 119.84,0 206.71,-7.12 206.71,-7.12 37.67,52.73 256.11,798.45 -120.52,798.45"
         style="fill:#78d3e0;fill-opacity:1;fill-rule:nonzero;stroke:none"
         id="path3931"
         inkscape:connector-curvature="0" /><path
         d="m 2962.02,4443.86 c 40.67,0 85.39,10.84 132.93,32.23 99.08,44.6 340.98,287.46 616.27,618.73 10.08,12.13 14.83,27.47 13.37,43.18 -1.44,15.72 -8.93,29.93 -21.05,40.01 -13.58,11.28 -27.98,13.65 -37.68,13.65 -17.67,0 -34.26,-7.77 -45.53,-21.33 -119.85,-144.23 -456.27,-530.61 -572.15,-585.69 l -1.71,-0.79 c -22.57,-10.16 -43.47,-16.79 -62.14,-19.72 l -44.05,-6.93 -32.29,30.74 c -10.83,10.29 -25.69,16.19 -40.82,16.19 -11.13,0 -22.03,-3.2 -31.57,-9.26 -13.31,-8.46 -22.52,-21.62 -25.95,-37.02 -3.41,-15.4 -0.63,-31.22 7.84,-44.53 4.52,-7.11 47.01,-69.46 144.53,-69.46"
         style="fill:#231f20;fill-opacity:1;fill-rule:nonzero;stroke:none"
         id="path3933"
         inkscape:connector-curvature="0" /><path
         d="m 2400.36,4430.87 c -9.69,0 -19.3,-2.38 -27.78,-6.87 l -17.34,-9.2 -19.61,-1.16 c -3.78,-0.22 -8.46,-0.4 -14.12,-0.4 -55.16,0 -190.75,17.39 -479.1,133.84 -317.97,128.42 -443.94,147.61 -490.72,147.61 -8.91,0 -14.14,-0.72 -16.52,-1.15 -15.53,-2.83 -29.02,-11.52 -38.01,-24.5 -8.97,-12.96 -12.37,-28.66 -9.54,-44.15 5.03,-27.7 29.89,-48.58 57.8,-48.58 1.16,0 2.34,0.03 3.53,0.11 l 6.53,0.41 6.52,-0.55 c 35.06,-2.91 147.75,-22.27 436.18,-138.75 233.17,-94.17 409.75,-141.92 524.82,-141.92 60.28,0 101.58,12.93 122.76,38.45 10.08,12.14 14.82,27.47 13.36,43.18 -1.45,15.72 -8.95,29.93 -21.07,39.99 -13.59,11.27 -27.99,13.64 -37.69,13.64"
         style="fill:#231f20;fill-opacity:1;fill-rule:nonzero;stroke:none"
         id="path3935"
         inkscape:connector-curvature="0" /><path
         d="m 3198.69,3200.99 c 0,0 -16.67,-195 -291.1,-235.46 -51.92,-7.66 -96.52,-10.99 -134.97,-10.99 -146.03,0 -203.48,48.05 -237.26,89.78 0,0 -263.02,-88.83 -283.11,-239.49 -15.02,-112.64 93.5,-170.54 189.09,-170.54 32.26,0 63.03,6.59 87.1,19.89 95.42,52.73 238.54,168.23 429.36,193.34 17.24,2.27 41.08,3.06 69.35,3.06 65.32,0 154.36,-4.23 240.66,-4.23 98.11,0 192.69,5.46 244.9,28.79 118.01,52.73 118.01,143.12 110.47,188.31 -8.35,50.09 -128.22,135.03 -424.49,137.54"
         style="fill:#dec795;fill-opacity:1;fill-rule:nonzero;stroke:none"
         id="path3937"
         inkscape:connector-curvature="0" /><path
         d="m 2879.05,3040.41 c 3.26,0.54 6.47,1.16 9.7,1.76 3.58,0.66 7.13,1.35 10.66,2.08 142.77,29.38 247.77,111.82 248.93,194.35 0.08,5.76 -0.35,11.52 -1.3,17.26 -1.79,10.8 -5.4,21.05 -10.59,30.7 -36.99,68.73 -155.64,106.5 -290.8,89.71 -7.24,-0.9 -14.51,-1.9 -21.84,-3.11 -163.26,-27.11 -283.24,-123.57 -267.98,-215.45 0.87,-5.27 2.22,-10.39 3.92,-15.39 28.03,-82.24 165.4,-127.46 319.3,-101.91"
         style="fill:#211c1d;fill-opacity:1;fill-rule:nonzero;stroke:none"
         id="path3939"
         inkscape:connector-curvature="0" /></g></g>
<g class="dark" id="g3949"
     inkscape:groupmode="layer"
     inkscape:label="ink_ext_XXXXXX"
     transform="matrix(1.3333333,0,0,-1.3333333,0,1013.3333)"><g
       id="g3951"
       transform="matrix(0.11564109,0,0,0.11564109,-51.116401,-60.457467)"><path
         d="m 2671.93,2504.33 c 32.47,-61.24 75.27,-113.74 127.39,-113.74 10.62,0 21.57,2.16 32.87,6.84 53.5,22.09 55.85,115.25 43.49,204.99 -77.04,-24.64 -144.33,-62.43 -203.75,-98.09"
         style="fill:#78d3e0;fill-opacity:1;fill-rule:nonzero;stroke:none"
         id="path3953"
         inkscape:connector-curvature="0" /><path
         d="m 3652.56,3440.03 c -105.48,0 -204.11,29.37 -288.16,80.37 -160.74,97.53 -268.13,274.18 -268.13,475.93 0,307.23 249.06,556.3 556.29,556.3 105.93,0 204.93,-29.63 289.21,-81.02 160.15,-97.66 267.09,-273.98 267.09,-475.28 0,-307.23 -249.07,-556.3 -556.3,-556.3 z m -74.23,-779.49 c -57.39,-24.91 -141.23,-35.96 -273.54,-37.14 0.51,-11.76 1.01,-22.53 1.59,-30.59 5.71,-75.82 -12.28,-136.77 -53.46,-181.13 -37.2,-40.13 -91.16,-62.24 -151.92,-62.24 -27.41,0 -54.47,4.49 -76.21,12.64 -23.55,8.84 -44.03,24.5 -62.67,48.6 -17.38,-49.77 -48.33,-84.2 -92.97,-102.65 -22.76,-9.39 -46.24,-14.15 -69.83,-14.15 -82.21,0 -152.5,55.71 -210.07,161.77 -7.48,-4.3 -16.33,-9.9 -23.33,-13.67 -39.59,-21.25 -87.96,-32.47 -139.86,-32.47 -97.56,0 -188.98,38.07 -244.61,101.84 -45.26,51.88 -64.87,118.96 -55.3,188.9 29.33,213.17 311.14,299.71 343.18,308.88 l 65.63,18.78 43.71,-52.44 c 5.31,-6.34 37.78,-38 157.99,-38 45.47,0 98.1,4.64 156.43,13.8 192.92,30.26 267.44,184.75 271.81,194.16 l 27.41,62.87 69.28,-0.57 c 419.03,-3.45 483.22,-187.43 492.9,-243.85 22.61,-132.29 -43.27,-245.68 -176.16,-303.34 z m -1937.94,458.92 c -160.74,97.53 -268.14,274.18 -268.14,475.93 0,307.24 249.06,556.3 556.3,556.3 105.93,0 204.93,-29.62 289.2,-81.01 160.16,-97.67 267.09,-273.98 267.09,-475.29 0,-307.23 -249.06,-556.29 -556.29,-556.29 -105.49,0 -204.11,29.36 -288.16,80.36 z m 3691.96,-918.85 c -0.17,1.08 -0.38,2.35 -0.51,3.3 -22.33,163.72 -92.16,237.16 -153.77,301.97 -57.36,60.34 -111.56,117.34 -94.11,221.99 16.13,96.74 93.09,156.26 218.85,171.75 -76.38,516.24 -188.3,1167.54 -332.18,1723.17 -71.84,277.49 -185.48,470.23 -337.88,598.37 -174.4,-89.22 -384.19,-187.3 -618.36,-288.84 -169.21,-73.37 -343.91,-145.25 -510.04,-210.56 -133.74,-143.49 -279.87,-284.91 -369.43,-325.21 -63.76,-28.69 -120.42,-40.11 -169.67,-40.11 -106.62,0 -178.6,53.48 -213.45,101.04 -40.39,-10.67 -72.66,-17.59 -94.61,-19.91 -26.25,-2.76 -64.92,-6.04 -113.3,-9.53 18.59,-48.67 11.19,-105.66 -24.46,-148.6 -39.21,-47.23 -102.39,-70.96 -191.93,-70.96 -128.84,0 -312.28,49.14 -557.55,148.21 -36.09,14.57 -69.22,27.52 -99.65,39.07 -18.78,-0.1 -37.56,-0.17 -56.33,-0.17 -0.05,0 -0.11,0 -0.17,0 -234.33,0.01 -417.46,7.37 -561.02,19.13 -157.233,-325.48 -88.905,-686.49 -31.35,-984.71 55.15,-285.79 246.5,-794.3 423.98,-1231.21 65.85,-162.09 129.76,-314.28 184.13,-441.63 480.48,-42.5 1096.51,-68.03 1768.21,-68.03 799.34,0 1519.36,36.21 2026.38,94.09 -36.94,152.03 -83.74,363.57 -91.78,417.38"
         style="fill:#78d3e0;fill-opacity:1;fill-rule:nonzero;stroke:none"
         id="path3955"
         inkscape:connector-curvature="0" /><path
         d="m 3260.73,3102.88 c 0,0 -93.7,-214.77 -351.38,-255.19 -67.15,-10.54 -124.22,-15.07 -172.69,-15.07 -137.51,0 -205.78,36.48 -238.51,75.7 0,0 -247.28,-70.74 -268.12,-222.35 -15.56,-113.36 96.95,-171.62 196.03,-171.62 33.45,0 65.34,6.64 90.3,20.02 98.93,53.06 247.24,169.29 445.04,194.55 17.88,2.29 42.58,3.09 71.91,3.08 67.69,0 159.94,-4.24 249.38,-4.24 101.71,0 199.81,5.5 253.92,28.97 122.31,53.06 122.31,144.02 114.54,189.49 -8.67,50.41 -83.33,154.14 -390.42,156.66"
         style="fill:#78d3e0;fill-opacity:1;fill-rule:nonzero;stroke:none"
         id="path3957"
         inkscape:connector-curvature="0" /><path
         d="m 3207.99,2624.15 c -23.33,0.44 -47.39,0.58 -69.64,1.14 -38.4,0.96 -74.3,1.87 -105.04,1.87 -23.55,0 -43.27,-0.4 -57.76,-2.2 22.72,-81.15 52.49,-160.81 83.19,-172.32 8.78,-3.28 24.35,-6.48 42.26,-6.48 49.7,0 117.57,24.49 108.94,139.42 -0.76,10.23 -1.37,23.86 -1.95,38.57"
         style="fill:#78d3e0;fill-opacity:1;fill-rule:nonzero;stroke:none"
         id="path3959"
         inkscape:connector-curvature="0" /><path
         d="M 1902.38,1168.94 C 1807.16,1147.18 1526.94,994.828 1284.81,948.57 1042.68,902.32 833.188,877.84 759.734,850.629 686.281,823.43 629.145,769.02 773.34,714.602 c 144.191,-54.411 843.38,-73.454 905.95,0 62.58,73.461 -43.15,105.296 -195.88,103.39 -108.82,-1.363 -95.47,36.559 -95.22,40.809 0,0 6.8,47.609 174.12,70.73 167.04,23.09 905.95,92.499 892.35,171.399 -13.6,78.89 -457.06,89.78 -552.28,68.01"
         style="fill:#ffffff;fill-opacity:1;fill-rule:nonzero;stroke:none"
         id="path3961"
         inkscape:connector-curvature="0" /><path
         d="m 1413.91,627.941 c -78.18,-17.011 -137.54,-49.25 -132.59,-72.011 4.95,-22.75 72.35,-27.41 150.52,-10.399 78.18,17.02 137.55,49.25 132.6,72.008 -4.96,22.762 -72.35,27.41 -150.53,10.402"
         style="fill:#ffffff;fill-opacity:1;fill-rule:nonzero;stroke:none"
         id="path3963"
         inkscape:connector-curvature="0" /><path
         d="m 1084.33,646.461 c -83.88,-6.672 -150.428,-30.301 -148.639,-52.77 1.789,-22.472 71.239,-35.269 155.109,-28.589 83.88,6.679 150.43,30.308 148.64,52.769 -1.79,22.469 -71.24,35.27 -155.11,28.59"
         style="fill:#ffffff;fill-opacity:1;fill-rule:nonzero;stroke:none"
         id="path3965"
         inkscape:connector-curvature="0" /><path
         d="M 815.273,670.781 C 759.445,663.18 716.117,642.832 718.5,625.34 c 2.383,-17.488 49.57,-25.512 105.402,-17.91 55.828,7.609 99.157,27.949 96.774,45.449 -2.383,17.492 -49.574,25.512 -105.403,17.902"
         style="fill:#ffffff;fill-opacity:1;fill-rule:nonzero;stroke:none"
         id="path3967"
         inkscape:connector-curvature="0" /><path
         d="m 617.953,695.289 c -53.906,-7.82 -95.937,-25.617 -93.887,-39.738 2.051,-14.129 47.411,-19.242 101.313,-11.41 53.902,7.82 95.934,25.621 93.883,39.738 -2.051,14.133 -47.407,19.242 -101.309,11.41"
         style="fill:#ffffff;fill-opacity:1;fill-rule:nonzero;stroke:none"
         id="path3969"
         inkscape:connector-curvature="0" /><path
         d="m 580.488,699.91 c 53.903,7.82 95.938,25.621 93.887,39.75 -2.055,14.121 -47.41,19.231 -101.312,11.399 -53.903,-7.821 -95.934,-25.618 -93.887,-39.739 2.051,-14.129 47.41,-19.238 101.312,-11.41"
         style="fill:#ffffff;fill-opacity:1;fill-rule:nonzero;stroke:none"
         id="path3971"
         inkscape:connector-curvature="0" /><path
         d="m 568.273,766.32 c 46.856,6.801 83.399,22.27 81.614,34.551 -1.782,12.277 -41.215,16.719 -88.071,9.918 -46.859,-6.809 -83.402,-22.277 -81.621,-34.547 1.782,-12.293 41.215,-16.73 88.078,-9.922"
         style="fill:#ffffff;fill-opacity:1;fill-rule:nonzero;stroke:none"
         id="path3973"
         inkscape:connector-curvature="0" /><path
         d="m 3355.18,1092.77 c -165.96,-8.16 -541.4,10.88 -593.09,-76.18 -51.69,-87.059 152.35,-119.711 473.38,-92.5 321.03,27.211 775.37,62.57 794.41,160.52 19.05,97.94 -84.34,78.89 -95.22,141.46 -10.88,62.58 114.27,62.58 138.75,155.08 24.49,92.5 -168.68,81.62 -340.07,81.62 -171.4,0 -457.06,-16.33 -484.27,-106.11 -27.2,-89.78 130.59,-89.78 242.14,-111.54 111.54,-21.76 78.89,-62.57 78.89,-62.57 -5.44,-57.14 -48.97,-81.62 -214.92,-89.78"
         style="fill:#ffffff;fill-opacity:1;fill-rule:nonzero;stroke:none"
         id="path3975"
         inkscape:connector-curvature="0" /><path
         d="m 2911.38,900.969 c -79.45,0 -143.85,-21.02 -143.85,-46.93 0,-25.918 64.4,-46.93 143.85,-46.93 79.45,0 143.85,21.012 143.85,46.93 0,25.91 -64.4,46.93 -143.85,46.93"
         style="fill:#ffffff;fill-opacity:1;fill-rule:nonzero;stroke:none"
         id="path3977"
         inkscape:connector-curvature="0" /><path
         d="m 3281.72,907.09 c -52.96,0 -95.9,-19.192 -95.9,-42.848 0,-23.672 42.94,-42.851 95.9,-42.851 52.97,0 95.9,19.179 95.9,42.851 0,23.656 -42.93,42.848 -95.9,42.848"
         style="fill:#ffffff;fill-opacity:1;fill-rule:nonzero;stroke:none"
         id="path3979"
         inkscape:connector-curvature="0" /><path
         d="m 3580.64,929.531 c -58.03,0 -105.08,-15.531 -105.08,-34.691 0,-19.149 47.05,-34.68 105.08,-34.68 58.04,0 105.09,15.531 105.09,34.68 0,19.16 -47.05,34.691 -105.09,34.691"
         style="fill:#ffffff;fill-opacity:1;fill-rule:nonzero;stroke:none"
         id="path3981"
         inkscape:connector-curvature="0" /><path
         d="m 3811.21,970.34 c -42.25,0 -76.51,-16.438 -76.51,-36.731 0,-20.277 34.26,-36.73 76.51,-36.73 42.26,0 76.52,16.453 76.52,36.73 0,20.293 -34.26,36.731 -76.52,36.731"
         style="fill:#ffffff;fill-opacity:1;fill-rule:nonzero;stroke:none"
         id="path3983"
         inkscape:connector-curvature="0" /><path
         d="m 4010.16,1011.15 c -42.83,0 -77.54,-15.99 -77.54,-35.709 0,-19.722 34.71,-35.711 77.54,-35.711 42.82,0 77.53,15.989 77.53,35.711 0,19.719 -34.71,35.709 -77.53,35.709"
         style="fill:#ffffff;fill-opacity:1;fill-rule:nonzero;stroke:none"
         id="path3985"
         inkscape:connector-curvature="0" /><path
         d="m 627.063,1978.65 c 0,-46.39 101.183,-90.26 280.898,-129.29 -12.801,93.08 -4.891,186.96 7.102,260.1 -184.153,-39.42 -288,-83.82 -288,-130.81"
         style="fill:#ffffff;fill-opacity:1;fill-rule:nonzero;stroke:none"
         id="path3987"
         inkscape:connector-curvature="0" /><path
         d="m 5930.11,2098.84 c -2.72,-7.53 -5.62,-14.97 -8.74,-22.28 -22.1,-51.7 -53.82,-97.35 -94.26,-135.66 -81.18,-76.89 -152.35,-122.96 -215.93,-139.76 351.23,49.36 559.72,110.84 559.72,177.51 0,42.82 -86.24,83.49 -240.79,120.19"
         style="fill:#ffffff;fill-opacity:1;fill-rule:nonzero;stroke:none"
         id="path3989"
         inkscape:connector-curvature="0" /><path
         d="m 1240.47,1605.14 c 130.42,0 222.25,71 286.69,163.12 -73.75,171.04 -195.11,459.23 -310.18,762.53 -31.15,-26.5 -67.14,-66.51 -106.08,-126.87 -96.95,-150.26 -176.798,-499.88 -76.24,-684.41 41.92,-76.97 109.26,-114.37 205.81,-114.37"
         style="fill:#dec795;fill-opacity:1;fill-rule:nonzero;stroke:none"
         id="path3991"
         inkscape:connector-curvature="0" /><path
         d="m 5844.76,2471.43 c -76.45,197.81 -239.03,338.23 -395.36,341.49 l -5.59,0.49 c -0.25,0.04 -30.29,4.52 -70.65,4.52 -85.15,0 -189.66,-18.18 -204.09,-104.72 -10.02,-60.05 16.25,-90.81 71.81,-149.25 63.49,-66.76 150.41,-158.2 176.46,-349.18 29.82,-218.71 83.22,-329.62 158.69,-329.64 h 0.01 c 35.24,0 99.52,21.13 205.78,121.78 130.85,123.97 118.31,321.23 62.94,464.51"
         style="fill:#dec795;fill-opacity:1;fill-rule:nonzero;stroke:none"
         id="path3993"
         inkscape:connector-curvature="0" /><path
         d="m 3753.83,3810.25 c 0,-96.87 -78.53,-175.41 -175.41,-175.41 -96.87,0 -175.4,78.54 -175.4,175.41 0,96.88 78.53,175.41 175.4,175.41 96.88,0 175.41,-78.53 175.41,-175.41 z m -656.53,185.43 c 0,-201.3 106.94,-377.62 267.1,-475.28 84.05,-51 182.68,-80.37 288.16,-80.37 307.23,0 556.3,249.07 556.3,556.3 0,201.3 -106.94,377.62 -267.09,475.28 -84.05,51 -182.68,80.37 -288.17,80.37 -307.23,0 -556.3,-249.06 -556.3,-556.3"
         style="fill:#ffffff;fill-opacity:1;fill-rule:nonzero;stroke:none"
         id="path3995"
         inkscape:connector-curvature="0" /><path
         d="m 2054.87,3399.29 c 0,-96.87 -78.53,-175.4 -175.41,-175.4 -96.87,0 -175.41,78.53 -175.41,175.4 0,96.88 78.54,175.41 175.41,175.41 96.88,0 175.41,-78.53 175.41,-175.41 z m -681.59,195.46 c 0,-201.31 106.95,-377.63 267.11,-475.29 84.05,-51 182.67,-80.36 288.16,-80.36 307.23,0 556.29,249.06 556.29,556.29 0,201.31 -106.93,377.62 -267.09,475.29 -84.05,51 -182.68,80.37 -288.17,80.37 -307.23,0 -556.3,-249.07 -556.3,-556.3"
         style="fill:#ffffff;fill-opacity:1;fill-rule:nonzero;stroke:none"
         id="path3997"
         inkscape:connector-curvature="0" /><path
         d="m 1704.05,3399.29 c 0,-96.87 78.54,-175.4 175.41,-175.4 96.88,0 175.41,78.53 175.41,175.4 0,96.88 -78.53,175.41 -175.41,175.41 -96.87,0 -175.41,-78.53 -175.41,-175.41"
         style="fill:#211c1d;fill-opacity:1;fill-rule:nonzero;stroke:none"
         id="path3999"
         inkscape:connector-curvature="0" /><path
         d="m 3403.02,3810.25 c 0,-96.87 78.53,-175.41 175.4,-175.41 96.88,0 175.41,78.54 175.41,175.41 0,96.88 -78.53,175.41 -175.41,175.41 -96.87,0 -175.4,-78.53 -175.4,-175.41"
         style="fill:#211c1d;fill-opacity:1;fill-rule:nonzero;stroke:none"
         id="path4001"
         inkscape:connector-curvature="0" /><path
         d="m 1396.75,4482.59 c -19.42,4.05 -30.3,5.3 -34.76,5.67 -74.01,-4.57 -141.85,47.19 -155.52,122.25 -1.39,7.63 -1.98,15.2 -2.19,22.72 -40.26,-22.84 -80.55,-47.55 -118.26,-73.65 l -67.06,-46.43 -49.339,64.96 c -14.867,19.57 -83.508,112.19 -146.766,234.02 -118.808,-56.06 -211.628,-117.35 -234.285,-175.41 -4.289,-10.99 -2.554,-16.93 1.895,-23.45 19.394,-28.38 134.422,-115.17 806.285,-130.68"
         style="fill:#588e2f;fill-opacity:1;fill-rule:nonzero;stroke:none"
         id="path4003"
         inkscape:connector-curvature="0" /><path
         d="m 4575.9,5583.11 c -22.32,-133.03 -65.22,-279.06 -93.67,-318.9 l -26.7,-37.35 c 120.88,58.85 228.71,114.68 320.24,166 318.25,178.44 357.82,256.58 362.37,276.29 2.98,12.9 -0.19,16.88 -1.54,18.59 -3.47,4.34 -25.81,26.03 -126.33,26.03 -109.85,0 -263.63,-25.12 -424.12,-59.95 -2.79,-22.91 -6.18,-46.46 -10.25,-70.71"
         style="fill:#588e2f;fill-opacity:1;fill-rule:nonzero;stroke:none"
         id="path4005"
         inkscape:connector-curvature="0" /><path
         d="m 4451.83,5225.06 -45.9,3.74 c -0.84,0.07 -85.1,6.82 -199.36,6.82 -118.71,0 -275.22,-7.16 -403.66,-37.57 24.52,-50.97 18.97,-113.7 -19.55,-160.04 -31.48,-37.89 -84.66,-101.04 -148.35,-173.48 112.97,45.85 229.54,94.62 346.5,145.34 171.58,74.39 329.74,146.83 470.32,215.19"
         style="fill:#588e2f;fill-opacity:1;fill-rule:nonzero;stroke:none"
         id="path4007"
         inkscape:connector-curvature="0" /><path
         d="m 1403.64,5358.88 c 136.88,-36.95 291.64,-55.68 459.99,-55.68 654.08,0 1373.77,283.13 1652.83,404.86 l 17.66,7.7 c -2.7,42.07 0.91,87.42 10.91,132.9 17.89,81.42 53.35,150.41 96.9,196.11 -8.4,31.22 -15.31,54.03 -20.13,65.61 -93.14,49.65 -861.11,335.72 -1261.61,335.72 -40.01,0 -74.95,-2.98 -103.85,-8.89 -354.96,-72.44 -894.3,-689.51 -913.67,-776.99 -5.81,-37.84 -4.05,-156.66 0.2,-284.94 l 60.77,-16.4"
         style="fill:#588e2f;fill-opacity:1;fill-rule:nonzero;stroke:none"
         id="path4009"
         inkscape:connector-curvature="0" /><path
         d="m 2791.69,4672.82 c 59,37.56 134.37,28.46 182.85,-17.68 7.47,1.18 20.17,4.36 39,12.84 73.54,34.95 338.83,318.17 540.36,560.7 7.25,8.72 15.33,16.32 23.97,22.91 C 3117.3,5052.58 2473.75,4835.08 1861,4835.08 c -98.49,0 -192,5.75 -278.81,16.98 l 13.45,-39.61 -76.62,-29.35 c -0.56,-0.22 -13.73,-5.3 -35.76,-14.46 98.63,-23.04 231.97,-68.34 399.43,-135.98 306.53,-123.79 423.76,-128.51 453.09,-126.77 41.69,22.09 92.06,22.95 135.17,1.89 79.51,5.09 141.36,10.02 178.36,13.92 16.82,1.77 41.82,7 73.63,15.22 -3.51,52.66 21.08,105.57 68.75,135.9"
         style="fill:#588e2f;fill-opacity:1;fill-rule:nonzero;stroke:none"
         id="path4011"
         inkscape:connector-curvature="0" /><path
         d="m 3550.54,5629.93 c -8.93,-3.9 -18.27,-7.93 -27.79,-12.02 -2.06,-0.88 -4.09,-1.76 -6.17,-2.65 -9.5,-4.07 -19.23,-8.21 -29.28,-12.45 -1.67,-0.7 -3.38,-1.42 -5.07,-2.13 -9.2,-3.87 -18.63,-7.8 -28.26,-11.79 -1.87,-0.78 -3.69,-1.54 -5.57,-2.31 -10.67,-4.41 -21.62,-8.89 -32.79,-13.43 -2.35,-0.96 -4.73,-1.92 -7.11,-2.88 -11.45,-4.64 -23.08,-9.32 -35.03,-14.07 -0.22,-0.08 -0.42,-0.17 -0.64,-0.25 -11.99,-4.77 -24.32,-9.6 -36.8,-14.47 -2.68,-1.04 -5.36,-2.09 -8.07,-3.14 -12.41,-4.82 -25.02,-9.67 -37.88,-14.56 -1.87,-0.71 -3.78,-1.43 -5.67,-2.14 -11.93,-4.52 -24.05,-9.07 -36.34,-13.65 -2.28,-0.84 -4.52,-1.69 -6.82,-2.54 -13.35,-4.94 -26.93,-9.91 -40.68,-14.89 -2.82,-1.03 -5.66,-2.05 -8.5,-3.07 -13.79,-4.97 -27.72,-9.95 -41.89,-14.93 -0.53,-0.19 -1.06,-0.38 -1.6,-0.57 -14.47,-5.09 -29.19,-10.18 -44.05,-15.27 -3.13,-1.08 -6.26,-2.15 -9.41,-3.23 -14.79,-5.03 -29.72,-10.07 -44.85,-15.08 -2.01,-0.67 -4.04,-1.33 -6.05,-1.99 -13.94,-4.61 -28.02,-9.19 -42.24,-13.76 -2.85,-0.92 -5.69,-1.84 -8.55,-2.76 -15.38,-4.92 -30.91,-9.81 -46.59,-14.67 -3.19,-0.99 -6.39,-1.97 -9.59,-2.95 -15.41,-4.75 -30.92,-9.46 -46.59,-14.13 -0.98,-0.3 -1.94,-0.59 -2.92,-0.88 -16.28,-4.84 -32.74,-9.63 -49.29,-14.37 -3.56,-1.02 -7.12,-2.04 -10.69,-3.05 -16.51,-4.7 -33.11,-9.35 -49.87,-13.93 -2.06,-0.56 -4.14,-1.11 -6.2,-1.67 -15.57,-4.23 -31.24,-8.4 -47,-12.52 -3.08,-0.8 -6.15,-1.61 -9.23,-2.41 -16.9,-4.38 -33.9,-8.68 -51,-12.91 -3.44,-0.84 -6.88,-1.68 -10.32,-2.52 -16.45,-4.02 -32.96,-7.99 -49.57,-11.85 -1.42,-0.33 -2.83,-0.68 -4.25,-1.01 -17.49,-4.05 -35.09,-7.98 -52.74,-11.84 -3.85,-0.84 -7.69,-1.68 -11.55,-2.51 -17.65,-3.81 -35.35,-7.54 -53.14,-11.14 -2.04,-0.41 -4.08,-0.8 -6.12,-1.21 -16.5,-3.31 -33.05,-6.5 -49.65,-9.62 -3.49,-0.65 -6.96,-1.31 -10.44,-1.96 -17.72,-3.27 -35.49,-6.42 -53.3,-9.44 -3.58,-0.61 -7.17,-1.2 -10.76,-1.8 -16.87,-2.81 -33.77,-5.53 -50.71,-8.11 -1.88,-0.29 -3.76,-0.59 -5.64,-0.88 -18.07,-2.72 -36.18,-5.27 -54.32,-7.71 -4.04,-0.54 -8.07,-1.08 -12.12,-1.6 -18.19,-2.39 -36.41,-4.65 -54.65,-6.73 -1.86,-0.21 -3.73,-0.39 -5.59,-0.6 -17.01,-1.9 -34.02,-3.65 -51.04,-5.27 -3.68,-0.35 -7.36,-0.71 -11.03,-1.05 -18,-1.64 -36.01,-3.13 -54,-4.44 -3.59,-0.26 -7.18,-0.49 -10.77,-0.74 -16.85,-1.16 -33.69,-2.19 -50.52,-3.04 -2.17,-0.11 -4.34,-0.25 -6.51,-0.36 -18.12,-0.87 -36.21,-1.51 -54.28,-2.01 -4.06,-0.11 -8.12,-0.21 -12.18,-0.3 -18.18,-0.41 -36.35,-0.68 -54.46,-0.69 -0.39,0 -0.78,-0.02 -1.17,-0.02 -1.18,0 -2.36,0.05 -3.54,0.05 -17.34,0.03 -34.63,0.28 -51.89,0.69 -3.59,0.09 -7.19,0.15 -10.78,0.25 -17.94,0.52 -35.83,1.25 -53.66,2.2 -3.54,0.19 -7.07,0.42 -10.61,0.63 -17.15,1 -34.26,2.18 -51.29,3.6 -1.55,0.13 -3.1,0.23 -4.65,0.36 -17.92,1.55 -35.75,3.4 -53.52,5.43 -3.88,0.45 -7.76,0.9 -11.64,1.36 -17.61,2.13 -35.15,4.46 -52.59,7.09 -2.43,0.37 -4.84,0.78 -7.26,1.16 -16.15,2.5 -32.22,5.25 -48.21,8.2 -3.02,0.56 -6.05,1.08 -9.07,1.65 -17.12,3.26 -34.12,6.82 -51.03,10.62 -3.57,0.8 -7.12,1.64 -10.68,2.46 -17.37,4.03 -34.66,8.25 -51.78,12.87 v 0 c 15.94,-24.13 31.74,-49.88 47.37,-77.34 56.81,-99.78 98.37,-198.36 121,-256.53 9.85,-1.54 20.08,-3.05 30.68,-4.5 3.4,-0.46 7.07,-0.89 10.55,-1.34 7.37,-0.97 14.7,-1.94 22.42,-2.84 4.17,-0.49 8.63,-0.93 12.9,-1.4 7.36,-0.81 14.63,-1.64 22.28,-2.39 4.87,-0.47 10.05,-0.88 15.05,-1.33 7.41,-0.67 14.71,-1.36 22.39,-1.96 5.49,-0.43 11.3,-0.78 16.93,-1.18 7.53,-0.52 14.94,-1.08 22.72,-1.54 6.03,-0.36 12.37,-0.62 18.55,-0.93 7.76,-0.4 15.42,-0.82 23.41,-1.14 6.45,-0.26 13.21,-0.41 19.81,-0.61 8.08,-0.25 16.07,-0.54 24.38,-0.71 6.9,-0.14 14.1,-0.17 21.16,-0.25 8.4,-0.1 16.69,-0.23 25.3,-0.24 0.91,0 1.76,-0.03 2.67,-0.03 13.07,0 26.45,0.13 40.03,0.35 3.51,0.05 7.12,0.15 10.66,0.23 11.55,0.23 23.27,0.54 35.18,0.93 4.76,0.16 9.54,0.33 14.36,0.52 12.51,0.48 25.22,1.06 38.12,1.74 3.35,0.17 6.62,0.31 10,0.5 16.07,0.9 32.47,1.97 49.14,3.18 4.16,0.31 8.42,0.67 12.62,0.99 13.01,1.01 26.18,2.11 39.55,3.32 5.34,0.48 10.69,0.98 16.08,1.49 14.44,1.38 29.08,2.89 43.92,4.52 3.43,0.38 6.77,0.7 10.22,1.09 18.09,2.05 36.53,4.3 55.22,6.73 4.84,0.63 9.78,1.33 14.66,1.99 14.41,1.93 28.98,3.98 43.74,6.16 5.98,0.88 11.97,1.77 18.01,2.69 16.46,2.51 33.14,5.17 50.02,7.99 3.39,0.57 6.69,1.08 10.09,1.65 20.13,3.42 40.61,7.09 61.35,10.97 5.49,1.02 11.08,2.13 16.62,3.18 15.89,3.04 31.95,6.22 48.19,9.53 6.54,1.33 13.08,2.67 19.67,4.05 18.59,3.89 37.41,7.96 56.46,12.22 3.28,0.73 6.48,1.41 9.77,2.15 22.12,5.01 44.61,10.32 67.34,15.85 6.28,1.52 12.65,3.14 18.97,4.7 17.26,4.28 34.68,8.71 52.27,13.29 7.18,1.87 14.35,3.73 21.58,5.65 21,5.58 42.22,11.36 63.71,17.39 2.83,0.8 5.6,1.53 8.45,2.34 24.19,6.83 48.76,14.03 73.56,21.45 6.98,2.09 14.06,4.28 21.09,6.42 18.72,5.69 37.62,11.55 56.68,17.59 7.74,2.45 15.45,4.89 23.24,7.39 23.62,7.6 47.46,15.43 71.6,23.57 2.23,0.75 4.4,1.45 6.64,2.2 26.25,8.9 52.9,18.2 79.77,27.75 7.69,2.74 15.48,5.57 23.23,8.36 20.22,7.28 40.6,14.76 61.17,22.42 8.26,3.08 16.5,6.14 24.82,9.28 26.48,10 53.18,20.25 80.23,30.9 1.4,0.54 2.75,1.05 4.15,1.61 28.32,11.17 57.04,22.81 85.98,34.71 8.4,3.45 16.89,7.01 25.34,10.53 21.77,9.05 43.71,18.32 65.83,27.79 8.74,3.75 17.47,7.47 26.27,11.28 29.89,12.96 59.98,26.17 90.5,39.9 12.71,39.9 29.61,89.87 50.57,145.38 -1.63,-0.06 -3.26,-0.35 -4.89,-0.35 -8.6,0 -17.21,0.93 -25.55,2.76 -48.63,10.69 -86.01,50.19 -106.69,111.28"
         style="fill:#dec795;fill-opacity:1;fill-rule:nonzero;stroke:none"
         id="path4013"
         inkscape:connector-curvature="0" /><path
         d="m 1864.8,5217.98 c -1.57,0 -3.14,0.03 -4.71,0.03 1.18,0 2.36,-0.05 3.54,-0.05 0.39,0 0.78,0.02 1.17,0.02"
         style="fill:#588e2f;fill-opacity:1;fill-rule:nonzero;stroke:none"
         id="path4015"
         inkscape:connector-curvature="0" /><path
         d="m 1018.35,5494.06 h -0.01 l 0.01,-42.62 z"
         style="fill:#78d3e0;fill-opacity:1;fill-rule:nonzero;stroke:none"
         id="path4017"
         inkscape:connector-curvature="0" /><path
         d="m 3785.29,6101.17 c 51.98,-11.42 91.37,-55.46 110.95,-123.96 3.12,-10.96 5.5,-22.52 7.5,-34.33 119.4,168.02 249.63,252.97 388.85,252.97 58.58,0 110.01,-13.8 153.14,-40.47 73.34,89.18 120,150.69 120,150.69 -55.13,-10.02 -170.4,-25.06 -170.4,-25.06 436.01,160.38 400.93,596.39 400.93,596.39 0,-75.17 -225.52,-255.59 -225.52,-255.59 10.02,65.15 -25.06,150.35 -25.06,150.35 10.02,-85.2 -260.61,-305.72 -260.61,-305.72 20.05,40.1 5.01,110.26 5.01,110.26 -15.03,-80.19 -135.31,-110.26 -135.31,-110.26 75.17,90.21 215.5,566.33 110.25,596.4 -105.24,30.06 -250.58,-310.73 -250.58,-310.73 -5.01,80.19 -50.12,80.19 -50.12,80.19 20.05,-250.59 -180.42,-451.05 -180.42,-451.05 -15.03,50.11 -95.22,75.17 -95.22,75.17 18.64,-40.39 8.39,-184.76 -2.09,-288.69 -4,-39.57 -8,-73.14 -10.48,-93 26.6,18.78 55.04,29.2 83.64,29.2 8.6,0 17.2,-0.92 25.54,-2.76"
         style="fill:#dec795;fill-opacity:1;fill-rule:nonzero;stroke:none"
         id="path4019"
         inkscape:connector-curvature="0" /><path
         d="m 3675.53,5601.9 c 16.37,-3.62 36.26,5.07 56.1,23.61 13.18,30.75 27.34,62.15 42.53,93.64 13.99,29 28.16,56.65 42.51,83.02 10.33,54.85 9.63,109.48 -2.41,151.63 -10.25,35.9 -27.91,59.86 -47.26,64.12 -2.38,0.53 -4.76,0.78 -7.25,0.78 -43.49,0 -106.7,-75.68 -131.47,-188.34 -12.98,-59.03 -13,-118.94 -0.03,-164.34 10.25,-35.9 27.92,-59.86 47.28,-64.12"
         style="fill:#ffffff;fill-opacity:1;fill-rule:nonzero;stroke:none"
         id="path4021"
         inkscape:connector-curvature="0" /><path
         d="m 4297.65,5829.03 -0.97,0.46 -0.45,0.2 c 0.07,-0.09 0.12,-0.2 0.2,-0.28 0.04,-0.02 0.07,-0.09 0.11,-0.11 0.21,-0.09 0.42,-0.18 0.65,-0.22 l 0.46,-0.05"
         style="fill:#78d3e0;fill-opacity:1;fill-rule:nonzero;stroke:none"
         id="path4023"
         inkscape:connector-curvature="0" /><path
         d="m 4378.39,5804.7 c -2.39,-29.65 -10.07,-54.09 -18.43,-76.25 -8.51,-22.11 -18.16,-41.71 -27.78,-59.26 -19.36,-35.02 -38.84,-61.72 -53.31,-79.81 -14.34,-18.14 -23.87,-27.54 -23.87,-27.54 0,0 3.02,13.01 8.7,35.1 5.47,22.16 13.76,53.42 22.44,90.17 4.3,18.34 8.62,38.12 11.99,58.52 3.48,20.28 5.71,41.7 4.67,60.26 -0.82,8.99 -2.51,17.11 -4.8,21.21 -0.46,1.06 -0.94,1.86 -1.46,2.2 -0.07,0.02 -0.14,0.03 -0.2,0.06 -0.26,0.13 -0.4,0.38 -0.6,0.56 l -3.36,1.55 -10.68,2.88 c -4.53,1.47 -8.89,1.41 -13.29,2.49 -4.39,0.79 -8.62,0.3 -12.92,0.76 -4.23,-0.36 -8.41,-0.76 -12.6,-1.27 -16.63,-2.68 -33.31,-10.8 -49.63,-22.65 -16.19,-11.99 -31.54,-27.5 -45.51,-44.14 -27.9,-33.56 -50.92,-70.59 -70.19,-102.9 -19.12,-32.52 -34.64,-60.78 -45.7,-80.69 -11.09,-20.13 -17.42,-31.63 -17.42,-31.63 0,0 -0.19,3.34 -0.09,9.56 0.25,6.18 0.17,15.41 1.35,26.89 1.81,23.12 6.17,56.01 16.44,94.71 10.48,38.59 26.33,83.33 54.52,128.2 14.19,22.31 31.68,44.81 54.99,64.45 22.97,19.69 53.12,36.24 87.3,42.26 8.48,1.21 17.17,1.79 25.71,2.09 8.47,-0.53 17.17,-0.49 25.36,-1.94 8.07,-1.67 16.62,-2.63 24.11,-5.42 l 11.37,-3.9 5.64,-1.99 0.7,-0.25 0.35,-0.13 3.98,-1.73 1.04,-0.56 2.1,-1.11 c 1.58,-0.13 21.95,-12.93 27.13,-21.21 l 5.49,-6.97 4.16,-7.25 c 2.91,-4.94 4.84,-9.74 6.38,-14.48 6.42,-19.14 6.85,-35.84 5.92,-50.84 z m -85.8,305.91 c -336.87,0 -552.93,-688.23 -594.16,-831.1 11.99,-2.44 23.73,-6.51 35.01,-11.97 144.62,43.29 331.78,53.32 473.13,53.32 119.6,0 206.3,-7.1 206.3,-7.1 37.59,52.62 255.6,796.85 -120.28,796.85"
         style="fill:#78d3e0;fill-opacity:1;fill-rule:nonzero;stroke:none"
         id="path4025"
         inkscape:connector-curvature="0" /><path
         d="m 4295.86,5830.24 c -0.25,0 -0.42,0.04 -0.57,0.1 0.12,-0.17 0.3,-0.28 0.45,-0.42 l 0.49,-0.23 c -0.13,0.18 -0.27,0.35 -0.37,0.55"
         style="fill:#78d3e0;fill-opacity:1;fill-rule:nonzero;stroke:none"
         id="path4027"
         inkscape:connector-curvature="0" /><path
         d="m 4296.23,5829.69 -0.49,0.23 c 0.2,-0.18 0.34,-0.43 0.6,-0.56 0.06,-0.03 0.13,-0.04 0.2,-0.06 -0.04,0.02 -0.07,0.09 -0.11,0.11 -0.08,0.08 -0.13,0.19 -0.2,0.28"
         style="fill:#ffffff;fill-opacity:1;fill-rule:nonzero;stroke:none"
         id="path4029"
         inkscape:connector-curvature="0" /><path
         d="m 2966.29,4446 c 40.58,0 85.21,10.82 132.65,32.17 98.89,44.51 340.3,286.89 615.05,617.5 10.05,12.1 14.8,27.41 13.34,43.09 -1.44,15.68 -8.91,29.87 -21.01,39.92 -13.55,11.26 -27.92,13.63 -37.6,13.63 -17.63,0 -34.2,-7.75 -45.44,-21.29 -119.61,-143.94 -455.36,-529.55 -571.01,-584.52 l -1.71,-0.79 c -22.52,-10.13 -43.38,-16.75 -62.01,-19.68 l -43.96,-6.91 -32.23,30.67 c -10.81,10.28 -25.64,16.17 -40.73,16.17 -11.12,0 -22,-3.21 -31.51,-9.25 -13.29,-8.45 -22.48,-21.57 -25.9,-36.95 -3.41,-15.37 -0.63,-31.15 7.82,-44.44 4.51,-7.09 46.92,-69.32 144.25,-69.32"
         style="fill:#ffffff;fill-opacity:1;fill-rule:nonzero;stroke:none"
         id="path4031"
         inkscape:connector-curvature="0" /><path
         d="m 2405.75,4433.04 c -9.68,0 -19.27,-2.38 -27.72,-6.86 l -17.32,-9.18 -19.57,-1.16 c -3.77,-0.22 -8.44,-0.39 -14.09,-0.39 -55.05,0 -190.36,17.35 -478.14,133.57 -317.34,128.16 -443.05,147.31 -489.74,147.31 -8.89,0 -14.11,-0.72 -16.49,-1.15 -15.49,-2.82 -28.96,-11.49 -37.93,-24.44 -8.95,-12.94 -12.35,-28.61 -9.53,-44.07 5.02,-27.64 29.84,-48.48 57.69,-48.48 1.16,0 2.34,0.03 3.53,0.1 l 6.51,0.41 6.51,-0.54 c 34.99,-2.91 147.46,-22.23 435.31,-138.47 232.71,-93.98 408.93,-141.64 523.78,-141.64 60.15,0 101.36,12.9 122.51,38.38 10.06,12.11 14.78,27.41 13.33,43.09 -1.45,15.68 -8.93,29.86 -21.03,39.91 -13.56,11.24 -27.94,13.61 -37.61,13.61"
         style="fill:#ffffff;fill-opacity:1;fill-rule:nonzero;stroke:none"
         id="path4033"
         inkscape:connector-curvature="0" /><path
         d="m 983.938,5022.49 c -8.153,16.52 -16.125,35.07 -22.481,56.26 -5.801,21.44 -11.559,44.96 -8.769,74.3 1.355,14.54 5.167,30.93 14.937,47.19 9.523,16.37 26.316,30.48 43.445,37.51 l 3.24,1.45 1.63,0.72 5.51,1.62 4.17,1.13 4.18,1.13 c 1.59,0.4 6.08,0.9 9.07,1.16 3.34,0.29 6.73,0.44 10.1,0.46 l 5.02,-0.07 3.74,-0.5 c 4.93,-0.77 9.96,-1.69 14.76,-2.84 18.12,-5.46 32.24,-13.91 44.48,-22.63 23.61,-18.16 40.6,-37.99 55.55,-58.16 14.99,-20.03 27.23,-40.58 38.14,-60.67 21.58,-40.27 37.1,-79.27 48.25,-113.39 11.22,-34.09 17.96,-63.32 21.76,-84.06 2.17,-10.25 3.04,-18.62 3.93,-24.19 0.64,-5.67 0.98,-8.69 0.98,-8.69 0,0 -7.84,9.39 -20.42,26.02 -12.74,16.54 -30.22,40.35 -50.4,68.76 -20.19,28.37 -43.19,61.42 -68.05,95.24 -12.46,16.84 -25.64,33.7 -39.07,49.72 -13.59,15.64 -27.77,31.07 -41.48,41.01 -6.59,4.99 -12.86,8.31 -16.96,9.85 -0.86,0.09 -1.56,0.14 -2.31,0.48 l -0.54,0.29 c 0.22,-0.07 0.45,-0.11 0.69,-0.11 0.48,-0.02 0.97,0.1 1.43,0.35 0.11,0.1 1.67,0.97 0.45,0.79 l -4.24,-0.86 -2.6,-0.53 c -3.5,-1.24 -5.47,-2.06 -7.89,-4.51 -2.48,-2.73 -5.05,-8.14 -7,-15.1 -3.92,-14.04 -3.93,-33.15 -2.92,-51 1.22,-18.17 3.69,-36.12 6.39,-52.82 5.49,-33.48 11.52,-62.25 15.47,-82.62 4.17,-20.31 6.41,-32.33 6.41,-32.33 0,0 -2.21,2.12 -5.99,6.36 -3.66,4.31 -9.45,10.45 -15.73,18.9 -13.03,16.7 -30.46,41.42 -46.882,74.38 z m 504.612,-159.78 c 0,0 -200.14,588.8 -470.25,588.73 -35.101,-0.01 -71.421,-9.96 -108.597,-32.44 -323.254,-195.45 127.797,-789.34 127.797,-789.34 195.46,135.32 451.05,233.05 451.05,233.05"
         style="fill:#78d3e0;fill-opacity:1;fill-rule:nonzero;stroke:none"
         id="path4035"
         inkscape:connector-curvature="0" /><path
         d="m 2879.05,3040.41 c 3.26,0.54 6.47,1.16 9.7,1.76 3.58,0.66 7.13,1.35 10.66,2.08 142.77,29.38 247.77,111.82 248.93,194.35 0.08,5.76 -0.35,11.52 -1.3,17.26 -1.79,10.8 -5.4,21.05 -10.59,30.7 -1.92,3.59 -4.2,7.04 -6.57,10.45 -1.03,1.49 -2.12,2.95 -3.23,4.41 -1.13,1.48 -2.38,2.91 -3.59,4.36 -3.43,4.07 -7.15,8.01 -11.2,11.79 -0.02,0.03 -0.05,0.06 -0.08,0.09 -0.01,0.01 -0.02,0.01 -0.03,0.02 -3.17,2.97 -6.54,5.83 -10.07,8.61 -0.15,0.12 -0.3,0.23 -0.45,0.35 -17.52,13.67 -39.29,25.02 -64.36,33.71 -1.19,0.41 -2.36,0.84 -3.56,1.24 -4.03,1.34 -8.14,2.6 -12.32,3.8 -1.85,0.53 -3.71,1.04 -5.59,1.54 -3.94,1.06 -7.91,2.09 -11.98,3.02 -2.3,0.53 -4.66,1 -7,1.49 -3.88,0.82 -7.75,1.65 -11.73,2.35 -3.13,0.55 -6.35,0.99 -9.53,1.47 -5.64,0.85 -11.35,1.61 -17.16,2.24 -4.19,0.45 -8.38,0.92 -12.66,1.26 -3.01,0.24 -6.07,0.38 -9.12,0.56 -4.22,0.25 -8.46,0.47 -12.76,0.61 -3.05,0.09 -6.11,0.14 -9.2,0.17 -4.49,0.05 -9.02,0.04 -13.58,-0.03 -2.94,-0.05 -5.87,-0.1 -8.83,-0.2 -5.08,-0.17 -10.21,-0.46 -15.36,-0.79 -2.52,-0.16 -5.01,-0.28 -7.54,-0.48 -7.71,-0.61 -15.47,-1.36 -23.3,-2.33 -7.24,-0.9 -14.51,-1.9 -21.84,-3.11 -6.78,-1.13 -13.46,-2.42 -20.08,-3.78 -1.66,-0.34 -3.32,-0.69 -4.96,-1.04 -6.5,-1.4 -12.95,-2.87 -19.28,-4.48 -0.07,-0.02 -0.14,-0.04 -0.21,-0.05 -6.46,-1.65 -12.79,-3.45 -19.06,-5.31 -1.47,-0.44 -2.93,-0.88 -4.39,-1.33 -6.17,-1.89 -12.27,-3.85 -18.24,-5.94 -0.02,-0.01 -0.04,-0.02 -0.07,-0.02 -6.09,-2.14 -12.04,-4.4 -17.92,-6.73 -1.24,-0.5 -2.47,-1 -3.71,-1.5 -11.64,-4.74 -22.82,-9.84 -33.47,-15.28 -1.05,-0.53 -2.09,-1.07 -3.13,-1.62 -5.25,-2.73 -10.4,-5.52 -15.38,-8.41 -0.01,-0.01 -0.02,-0.01 -0.02,-0.01 0,0 -0.01,0 -0.01,-0.01 -4.42,-2.56 -8.71,-5.19 -12.9,-7.87 -0.78,-0.49 -1.52,-1 -2.28,-1.49 -3.28,-2.13 -6.49,-4.29 -9.62,-6.48 -1.06,-0.74 -2.09,-1.48 -3.13,-2.23 -2.91,-2.09 -5.76,-4.21 -8.53,-6.36 -0.9,-0.69 -1.81,-1.37 -2.69,-2.06 -7.17,-5.68 -13.88,-11.52 -20.07,-17.52 -0.68,-0.66 -1.33,-1.34 -2,-2 -2.34,-2.33 -4.62,-4.67 -6.8,-7.03 -0.84,-0.9 -1.65,-1.81 -2.46,-2.71 -2.03,-2.27 -3.97,-4.55 -5.85,-6.85 -0.7,-0.85 -1.41,-1.69 -2.08,-2.54 -2.42,-3.06 -4.74,-6.14 -6.89,-9.25 -0.03,-0.04 -0.06,-0.08 -0.08,-0.11 -2.21,-3.19 -4.24,-6.4 -6.15,-9.64 -0.51,-0.85 -0.96,-1.71 -1.45,-2.57 -1.34,-2.36 -2.61,-4.73 -3.79,-7.12 -0.52,-1.05 -1.03,-2.11 -1.52,-3.17 -1.08,-2.32 -2.07,-4.65 -3,-6.99 -0.38,-0.97 -0.79,-1.94 -1.15,-2.91 -1.17,-3.19 -2.23,-6.39 -3.11,-9.6 -0.02,-0.07 -0.05,-0.15 -0.07,-0.23 -0.89,-3.28 -1.59,-6.58 -2.16,-9.87 -0.18,-1 -0.29,-1.99 -0.43,-2.98 -0.34,-2.34 -0.61,-4.67 -0.79,-7.01 -0.09,-1.15 -0.15,-2.29 -0.2,-3.43 -0.09,-2.32 -0.09,-4.63 -0.02,-6.94 0.03,-1.03 0.03,-2.07 0.09,-3.1 0.21,-3.3 0.53,-6.59 1.08,-9.88 0.87,-5.27 2.22,-10.39 3.93,-15.39 28.02,-82.24 165.39,-127.46 319.29,-101.91"
         style="fill:#211c1d;fill-opacity:1;fill-rule:nonzero;stroke:none"
         id="path4037"
         inkscape:connector-curvature="0" /><path
         d="m 2521.85,3144.41 c 4.8,-28.85 22.03,-53.88 48.26,-74.1 2.7,-2.09 5.59,-4.08 8.52,-6.07 44.36,-30.36 110.53,-48.32 186.24,-48.98 29.69,-0.27 60.79,2.11 92.54,7.38 95.35,15.83 176.48,54.44 226.4,102.17 11.09,10.61 20.66,21.67 28.46,33.02 7.8,11.36 13.91,23.02 18.1,34.83 4.19,11.81 6.46,23.77 6.61,35.73 0.07,5.98 -0.36,11.96 -1.34,17.93 -3.97,23.85 -16.33,45.14 -35.29,63.22 -4.73,4.52 -9.89,8.85 -15.42,12.96 -11.09,8.21 -23.7,15.59 -37.6,22.05 -19.22,8.91 -41.11,15.92 -64.73,21.09 -10.62,2.32 -21.46,4.38 -32.8,5.89 -17.91,2.38 -36.7,3.68 -56.42,3.9 0,0 -0.36,0.04 -0.76,0.05 -19.75,0.17 -40.2,-0.83 -61,-3.08 -10.44,-1.12 -20.95,-2.56 -31.54,-4.31 -31.78,-5.28 -61.98,-13.09 -89.97,-22.92 -121.29,-42.61 -201.12,-123.25 -188.26,-200.76"
         style="fill:#211c1d;fill-opacity:1;fill-rule:nonzero;stroke:none"
         id="path4039"
         inkscape:connector-curvature="0" /><path
         d="m 2799.32,2390.59 c 10.63,0 21.57,2.16 32.87,6.84 53.5,22.09 55.85,115.25 43.49,204.99 -77.04,-24.64 -144.33,-62.43 -203.75,-98.09 32.47,-61.24 75.27,-113.74 127.39,-113.74"
         style="fill:#ffffff;fill-opacity:1;fill-rule:nonzero;stroke:none"
         id="path4041"
         inkscape:connector-curvature="0" /><path
         d="m 3058.74,2452.64 c 8.78,-3.28 24.35,-6.48 42.26,-6.48 49.7,0 117.57,24.49 108.94,139.42 -0.76,10.23 -1.37,23.86 -1.95,38.57 -23.33,0.44 -47.39,0.58 -69.64,1.14 -38.4,0.96 -74.3,1.87 -105.04,1.87 -23.55,0 -43.27,-0.4 -57.75,-2.2 22.72,-81.15 52.48,-160.81 83.18,-172.32"
         style="fill:#ffffff;fill-opacity:1;fill-rule:nonzero;stroke:none"
         id="path4043"
         inkscape:connector-curvature="0" /><path
         d="m 3260.73,3102.88 c 0,0 -93.7,-214.77 -351.38,-255.19 -67.15,-10.54 -124.22,-15.07 -172.69,-15.07 -137.51,0 -205.78,36.48 -238.51,75.7 0,0 -247.27,-70.74 -268.12,-222.35 -15.56,-113.36 96.95,-171.62 196.03,-171.62 33.45,0 65.34,6.64 90.3,20.02 98.93,53.06 247.24,169.29 445.04,194.55 17.88,2.29 42.58,3.09 71.91,3.08 67.69,0 159.94,-4.24 249.38,-4.24 101.71,0 199.81,5.5 253.92,28.97 122.31,53.06 122.31,144.02 114.54,189.49 -8.67,50.41 -83.33,154.14 -390.42,156.66"
         style="fill:#dec795;fill-opacity:1;fill-rule:nonzero;stroke:none"
         id="path4045"
         inkscape:connector-curvature="0" /></g></g>
</svg>
